# xmcd CD database file
#
# Track frame offsets:
#	150
#	15482
#	32227
#
# Disc length: 603 seconds
#
# Revision: 0
# Processed by: cddbd v1.5.2PL0 Copyright (c) Steve Scherf et al.
# Submitted via: CDex 1.70beta2
#
DISCID=19025903
DTITLE=Kinos - Kinopalatsissa
DYEAR=1900
DGENRE=Country
TTITLE0=Kinopalatsissa
TTITLE1=Sinisiipi
TTITLE2=Kati (Pohjalainen unelma)
EXTD=
EXTT0=
EXTT1=
EXTT2=
PLAYORDER=
